<?xml version="1.0" encoding="utf-8"?>
<!-- Svg Vector Icons : http://www.onlinewebfonts.com/icon -->
<!DOCTYPE svg PUBLIC "-//W3C//DTD SVG 1.1//EN"
		"http://www.w3.org/Graphics/SVG/1.1/DTD/svg11.dtd">
<svg version="1.1" xmlns="http://www.w3.org/2000/svg" x="0px" y="0px"
     viewBox="20 200 500 500" enable-background="new 0 0 1000 1000"
     width="40"
     height="40"
     xml:space="preserve"><g>
		<path d="M10,739.7c0.9,0,1.7,0,2.6,0c325,0,649.9,0,974.9,0c0.9,0,1.7,0,2.6,0c-0.1,0.1-0.1,0.4-0.2,0.4c-0.5,0-1,0-1.6,0c-325.5,0-651,0-976.5,0C11.2,740.1,10.6,739.8,10,739.7z"/>
		<path d="M112.2,329.5c0,11.7-0.2,23.4,0,35.1c0.5,23.9,1,47.9,1.8,71.8c0.3,10.4,1.1,20.9,1.8,31.3c0.4,5.5,1,10.9,1.6,16.3c0.4,3.8,0.8,7.6,1.6,11.4c1,5,2.2,9.9,3.5,14.8c0.7,2.6,1.6,3,4.3,2.4c0.2,0,0.4-0.1,0.6-0.1c10-0.3,20-0.7,29.9-0.8c4.8,0,9.7,0.3,14.4,0.9c6.2,0.7,12.3,1.8,18.5,2.8c7,1.1,13.9,2.3,20.8,3.6c4,0.8,8,1.9,11.9,2.9c4.4,1.1,8.8,2.3,13.2,3.6c3.9,1.1,7.9,2.4,11.7,3.7c4.1,1.4,8.2,2.9,12.2,4.6c3.5,1.5,7,3.3,10.4,4.9c6.5,3.1,12.5,6.9,18.2,11.3c3.9,3.1,7.5,6.6,9.8,11c2.6,5,3.4,10.6,2.7,16.2c-0.9,6.8-3.2,13.1-6.9,18.9c-3.9,6-8.7,11.2-14.1,15.8c-8.4,7.2-17.9,12.9-27.8,17.6c-7,3.3-14.4,6-21.7,8.8c-4.2,1.6-8.4,3-12.7,4.3c-4.4,1.3-8.8,2.4-13.2,3.5c-4.3,1.1-8.6,2.3-12.9,3.2c-3.5,0.8-7,1.2-10.6,1.9c-4.1,0.8-8.1,1.7-12.3,2.3c-6,0.9-12,1.8-18,2.5c-7.2,0.9-14.5,1.8-21.8,2.6c-3.6,0.4-7.1,0.6-10.7,0.8c-8.1,0.5-16.3,1.1-24.4,1.6c-3,0.2-3,0-3.2-3c-0.5-8.5-1.1-16.9-1.6-25.4c-0.5-7.3-1-14.6-1.5-21.8c-0.7-9-1.4-18.1-2.1-27.1c-0.5-5.9-0.8-11.9-1.3-17.8c-0.8-9.2-1.7-18.3-2.6-27.5c-0.4-4.4-0.8-8.7-1.3-13.1c-0.7-5.9-1.5-11.7-2.2-17.6c-0.7-5.8-1.1-11.7-1.8-17.5c-0.6-5.4-1.5-10.9-2.2-16.3c-0.9-6.7-1.8-13.3-2.8-20c-0.9-5.7-2-11.4-2.9-17.1c-0.7-4.4-1.2-8.8-1.8-13.1c-0.7-4.7-1.6-9.4-2.4-14.1c-1.1-6.8-2.3-13.5-3.4-20.3c-0.8-5.1-1.6-10.1-2.5-15.2c-1.4-7.2-2.9-14.4-4.3-21.7c-0.8-4.4-1.5-8.8-2.3-13.1c-0.8-4.3-1.8-8.6-2.7-13c-0.7-3.4-1.3-6.9-2-10.3c-0.9-4.5-1.8-8.9-2.7-13.4c-1-4.9-2.1-9.8-3-14.8c-0.4-1.9,1-2.5,2.4-3c5.4-2,10.7-4,16.1-6c5-1.9,10-3.7,15-5.5c3.8-1.4,7.7-2.9,11.5-4.4c5.1-1.9,10.1-3.7,15.2-5.6c2.1-0.8,4.1-1.6,6.2-2.3c1-0.4,2.1-0.8,3.2-1c1.9-0.4,2.4,0.1,2.3,2c-0.2,5.6-0.3,11.2-0.5,16.9c-0.1,4.3-0.1,8.5-0.1,12.8c0,12.5,0,25,0,37.5C112.4,329.5,112.3,329.5,112.2,329.5z M159,554.8c-3.4-0.1-3.9,0.5-3.6,3c0.3,2.1,0.7,4.2,1,6.4c0.4,2.4,0.6,4.9,1,7.3c0.7,4.4,1.4,8.7,2.1,13.1c0.8,5.5,1.5,11.1,2.2,16.7c0.9,6.3,1.9,12.6,2.8,19c0.3,1.8,1.7,2.4,3.2,1.4c0.5-0.3,0.9-0.8,1.4-1.1c7.1-5.2,14.1-10.4,21.2-15.6c5.4-4,10.8-8.1,16.3-12.1c4.9-3.6,9.8-7,14.7-10.7c2-1.5,1.8-2.3-0.3-3.3c-0.9-0.4-1.8-0.8-2.7-1.2c-5.3-2.2-10.5-4.4-15.8-6.6c-6-2.6-12-5.3-18.1-7.7c-5.9-2.3-12-4.4-18-6.4C163.7,555.8,160.9,555.3,159,554.8z"/>
		<path d="M385.7,305.3c2.3,0.2,5.7,0.5,9.1,1c2,0.3,2.8,1.8,3,3.6c0.3,2.8,0.6,5.6,0.7,8.4c0.6,10.4,1.2,20.7,1.8,31.1c0.5,7.8,1.1,15.6,1.7,23.4c0.7,9.4,1.6,18.7,2.3,28.1c1.1,13.7,2.1,27.4,3.1,41c1,13,1.9,25.9,2.8,38.9c0.5,7.5,1,15.1,1.7,22.6c0.9,10.5,2,20.9,2.8,31.4c0.8,10.2,1.4,20.3,2.2,30.5c0.7,9.6,1.6,19.3,2.3,28.9c0.4,5.3,0.6,10.6,0.9,15.9c0.1,0.9,0.4,1.8,0.6,2.7c0.4,1.7-0.2,2.5-2,2.8c-7.7,1.3-15.3,1.7-23.1,0.7c-1.7-0.2-3.4-0.3-5-0.8c-0.7-0.2-1.6-1.1-1.6-1.7c-0.7-6.6-1.2-13.3-1.9-19.9c-0.7-7.5-1.5-14.9-2.3-22.4c-0.3-3.1-0.5-6.3-0.8-9.4c-0.6-7.3-1.1-14.5-1.9-21.8c-0.8-7.2-1.9-14.3-2.8-21.5c-0.8-7.1-1.3-14.2-2.2-21.2c-0.9-7.3-2-14.6-2.9-21.9c-0.7-5.6-1.2-11.3-1.9-16.9c-0.8-6.2-1.9-12.3-2.8-18.5c0-0.3-0.1-0.5-0.1-0.8c-0.7-5.7-1.3-11.4-2.1-17.1c-1-7.4-2.1-14.7-3.3-22.1c-0.7-4.8-1.6-9.5-2.3-14.2c-0.8-5.5-1.5-10.9-2.5-16.4c-1.4-8-2.9-16-4.3-24.1c-0.8-4.8-1.4-9.7-2.3-14.5c-0.8-4.3-1.7-8.5-2.6-12.8c-0.5-2.6-1.1-5.1-1.4-7.7c-0.1-0.6,0.5-1.7,1-1.9c1.2-0.5,2.6-0.7,4-0.8c8-0.8,16.1-1.5,24.1-2.2C380.1,305.5,382.4,305.5,385.7,305.3z"/>
		<path d="M364.3,624.1c0.1,5.8,0,4.9-5.7,5.9c-6.7,1.2-13.5,2.1-20.2,3c-2.9,0.4-5.8,0.7-8.7,1c-1.5,0.2-2-0.8-2.2-2c-0.9-4.7-1.7-9.5-2.6-14.2c-0.7-3.5-1.5-7-2.2-10.5c-0.9-4.3-1.7-8.6-2.5-12.9c-0.9-4.4-1.7-8.7-2.6-13.1c-0.9-4.5-1.6-9-2.5-13.4c-0.7-3.6-1.5-7.1-2.2-10.7c-0.8-4.1-1.7-8.2-2.4-12.3c-1.3-7.1-2.4-14.2-3.7-21.2c-0.9-4.6-2-9.1-2.8-13.7c-0.7-4-1.2-8.1-1.9-12.1c-0.7-4.3-1.5-8.6-2.2-12.9c-0.7-4.1-1.4-8.1-2-12.2c-0.4-2.4,0-2.8,2.4-3.3c5.6-1.1,11.2-2,16.7-3.3c6.4-1.6,13-1.9,19.5-2.4c2.2-0.1,4.4-0.1,6.5,0.1c2.4,0.2,4.1,2,4.5,4.7c1.2,7.8,2.5,15.6,3.6,23.4c0.9,6.1,1.7,12.2,2.4,18.4c0.9,7.9,1.5,15.8,2.4,23.7c1,10,2.2,20,3.2,30c0.8,8.1,1.3,16.2,1.9,24.2c0.6,7.5,1,14.9,1.7,22.4C363.1,615.3,363.8,619.7,364.3,624.1z"/>
		<path d="M490.9,566.5c0,18.5,0,36.9,0,55.4c0,4.8-0.4,9.5-0.5,14.3c0,1.2-0.6,1.8-1.7,2c-0.5,0.1-0.9,0.1-1.4,0.2c-7.2,0.3-14.5,0.7-21.7,1c-3,0.2-6,0.5-9,0.6c-2.6,0.1-3-0.3-3.2-2.8c-0.3-3.6-0.5-7.3-0.9-11c-0.5-5.8-1.1-11.7-1.7-17.5c-0.7-7.1-1.6-14.2-2.3-21.4c-1.2-12-2.4-23.9-3.5-35.9c-0.9-9.4-1.6-18.9-2.4-28.3c-0.6-6.6-1.1-13.2-1.6-19.9c-0.6-8.4-1.2-16.8-1.8-25.1c0-0.6,0-1.2,0-1.8c0.2-2.7,0.6-3,3.4-3.2c8.1-0.7,16.1-1.6,24.2-2.1c4.5-0.3,9,0.1,13.5,0.3c2,0.1,4,0.4,5.9,1.1c0.9,0.3,2,1.5,2.2,2.5c0.8,3.9,1.6,7.8,1.7,11.8c0.6,26.6,1,53.2,1.5,79.8C491.3,566.5,491.1,566.5,490.9,566.5z"/>
		<path d="M462.6,409.9c0-7.3,0-14.5,0-21.8c0-2.5,0.2-2.8,2.7-2.6c5.7,0.3,11.4,0.4,17,1.1c3.7,0.4,4.4,0.6,4.4,4.5c-0.3,18-0.4,36-0.9,53.9c-0.2,6.5,0.4,5.5-5.4,5c-4.9-0.4-9.9-1-14.8-1.6c-1.3-0.1-1.5-1-1.6-2.1c-0.2-5.7-0.6-11.5-0.7-17.2c-0.1-6.4,0-12.8,0-19.2C463,409.9,462.8,409.9,462.6,409.9z"/>
		<path d="M324.9,379.6c2.9,0,5.9,0,8.8,0c2.5,0,3,0.4,3.3,2.9c0.6,5.6,1.1,11.2,1.6,16.8c0.9,10.2,1.7,20.3,2.5,30.5c0.2,2.7,0.2,5.5,0.4,8.2c0,0.6,0.1,1.3,0.3,1.9c0.6,2.5,0.2,3-2.4,3c-5.8-0.1-11.6-0.2-17.4-0.2c-1.3,0-1.8-0.6-1.9-1.7c-0.4-2.6-0.9-5.3-1.2-7.9c-0.8-6.7-1.5-13.5-2.2-20.3c-0.5-4.8-1-9.6-1.5-14.4c-0.5-5.1-1.1-10.2-1.6-15.3c0-0.3-0.1-0.7-0.1-1c-0.4-1.8-0.1-2.3,1.9-2.4C318.4,379.7,321.6,379.7,324.9,379.6C324.9,379.7,324.9,379.7,324.9,379.6z"/>
		<path d="M447.9,386.4c0.7,0,1.3,0,2,0c1.7-0.1,2.5,0.7,2.6,2.4c0.6,12.5,1.1,25.1,1.8,37.6c0.3,6.6,1,13.2,1.4,19.7c0.2,3.1-0.1,3.3-3.3,3.4c-4,0.2-8,0.5-11.9,0.7c-2.8,0.2-3.4-0.2-3.7-2.9c-0.8-7.5-1.5-15.1-2.3-22.6c-0.5-5.5-1.1-10.9-1.6-16.4c-0.5-4.7-1-9.3-1.6-14c-0.1-1.2-0.7-2.3-0.5-3.4c0.1-0.8,1-2.1,1.7-2.2c5.2-1,10.4-1.8,15.6-2.6C447.9,386.2,447.9,386.3,447.9,386.4z"/>
		<path d="M294.9,447.1c-0.5-0.5-1.5-1.2-1.8-2.1c-0.9-3.5-1.6-7-2.3-10.5c-1.1-5.2-2.1-10.4-3.1-15.6c-0.7-3.6-1.4-7.3-2.1-10.9c-0.8-3.8-1.7-7.6-2.5-11.4c-0.6-2.7-1.2-5.5-1.6-8.2c-0.1-0.6,0.7-1.8,1.3-2c5.3-1.5,10.5-2.8,15.8-4.1c3.4-0.8,4.4-0.1,4.9,4c0.7,4.9,1.1,9.8,1.8,14.7c0.8,5.4,1.9,10.8,2.7,16.2c0.8,5.6,1.5,11.1,2.3,16.7c0.3,2.3,0.9,4.5,1.3,6.7c0.5,2.6,0,3.8-2.4,4.2C304.7,445.7,300.1,446.3,294.9,447.1z"/>
	</g>
</svg>